<svg xmlns="http://www.w3.org/2000/svg" xmlns:xlink="http://www.w3.org/1999/xlink" width="459" zoomAndPan="magnify" viewBox="0 0 344.25 119.999999" height="160" preserveAspectRatio="xMidYMid meet" version="1.2"><defs><clipPath id="e18870a9a6"><path d="M 128.753906 8.636719 L 207.953125 8.636719 L 207.953125 36 L 128.753906 36 Z M 128.753906 8.636719 "/></clipPath><clipPath id="c4039533dc"><path d="M 81.273438 2 L 150.277344 2 L 150.277344 29 L 81.273438 29 Z M 81.273438 2 "/></clipPath><clipPath id="27cda5775f"><path d="M 112 25 L 119 25 L 119 32.539062 L 112 32.539062 Z M 112 25 "/></clipPath><clipPath id="915c63b39b"><path d="M 122 25 L 129 25 L 129 32.539062 L 122 32.539062 Z M 122 25 "/></clipPath></defs><g id="ab0a2565d6"><g clip-rule="nonzero" clip-path="url(#e18870a9a6)"><path style=" stroke:none;fill-rule:evenodd;fill:#ffffff;fill-opacity:1;" d="M 207.9375 34.058594 C 206.136719 35.265625 203.714844 35.363281 201.78125 34.109375 C 191.828125 27.671875 173.675781 15.925781 170.144531 13.640625 C 169.082031 12.953125 168.339844 12.898438 168.339844 12.898438 C 167.914062 12.898438 167.5 13.019531 167.140625 13.25 C 167.140625 13.25 145.960938 26.953125 134.902344 34.109375 C 132.964844 35.363281 130.542969 35.265625 128.742188 34.058594 L 167.421875 9.035156 C 167.980469 8.675781 168.703125 8.675781 169.261719 9.035156 Z M 207.9375 34.058594 "/></g><path style=" stroke:none;fill-rule:evenodd;fill:#ffbd59;fill-opacity:1;" d="M 166.265625 22.8125 C 162.640625 22.8125 159.699219 25.753906 159.699219 29.378906 L 166.265625 29.378906 Z M 166.265625 22.8125 "/><path style=" stroke:none;fill-rule:evenodd;fill:#ffbd59;fill-opacity:1;" d="M 159.699219 32.414062 L 166.265625 32.414062 L 166.265625 38.980469 L 159.699219 38.980469 Z M 159.699219 32.414062 "/><path style=" stroke:none;fill-rule:evenodd;fill:#ffbd59;fill-opacity:1;" d="M 169.550781 32.414062 L 176.117188 32.414062 L 176.117188 38.980469 L 169.550781 38.980469 Z M 169.550781 32.414062 "/><path style=" stroke:none;fill-rule:evenodd;fill:#ffbd59;fill-opacity:1;" d="M 169.554688 22.8125 C 173.179688 22.8125 176.121094 25.753906 176.121094 29.378906 L 169.554688 29.378906 Z M 169.554688 22.8125 "/><g clip-rule="nonzero" clip-path="url(#c4039533dc)"><path style=" stroke:none;fill-rule:evenodd;fill:#ffffff;fill-opacity:1;" d="M 160.457031 27.378906 C 158.65625 28.585938 156.234375 28.679688 154.300781 27.429688 C 144.347656 20.988281 126.195312 9.246094 122.664062 6.960938 C 121.597656 6.273438 120.859375 6.214844 120.859375 6.214844 C 120.433594 6.21875 120.019531 6.339844 119.660156 6.570312 C 119.660156 6.570312 98.480469 20.273438 87.421875 27.429688 C 85.484375 28.679688 83.0625 28.585938 81.261719 27.378906 L 119.941406 2.355469 C 120.5 1.992188 121.222656 1.992188 121.78125 2.355469 Z M 160.457031 27.378906 "/></g><path style=" stroke:none;fill-rule:evenodd;fill:#ffbd59;fill-opacity:1;" d="M 118.785156 16.132812 C 115.15625 16.132812 112.21875 19.070312 112.21875 22.699219 L 118.785156 22.699219 Z M 118.785156 16.132812 "/><g clip-rule="nonzero" clip-path="url(#27cda5775f)"><path style=" stroke:none;fill-rule:evenodd;fill:#ffbd59;fill-opacity:1;" d="M 112.21875 25.730469 L 118.785156 25.730469 L 118.785156 32.300781 L 112.21875 32.300781 Z M 112.21875 25.730469 "/></g><g clip-rule="nonzero" clip-path="url(#915c63b39b)"><path style=" stroke:none;fill-rule:evenodd;fill:#ffbd59;fill-opacity:1;" d="M 122.070312 25.730469 L 128.636719 25.730469 L 128.636719 32.300781 L 122.070312 32.300781 Z M 122.070312 25.730469 "/></g><path style=" stroke:none;fill-rule:evenodd;fill:#ffbd59;fill-opacity:1;" d="M 122.074219 16.132812 C 125.699219 16.132812 128.640625 19.070312 128.640625 22.699219 L 122.074219 22.699219 Z M 122.074219 16.132812 "/><g style="fill:#ffffff;fill-opacity:1;"><g transform="translate(25.870742, 78.276559)"><path style="stroke:none" d="M 41.234375 -35.515625 L 37.953125 -35.515625 L 37.953125 -1.3125 L 41.234375 -1.3125 L 41.234375 0 L 24.796875 0 L 24.796875 -1.3125 L 28.078125 -1.3125 L 28.078125 -18.9375 L 15.125 -18.9375 L 15.125 -1.3125 L 18.421875 -1.3125 L 18.421875 0 L 1.96875 0 L 1.96875 -1.3125 L 5.265625 -1.3125 L 5.265625 -35.515625 L 1.96875 -35.515625 L 1.96875 -36.828125 L 18.421875 -36.828125 L 18.421875 -35.515625 L 15.125 -35.515625 L 15.125 -20.25 L 28.078125 -20.25 L 28.078125 -35.515625 L 24.796875 -35.515625 L 24.796875 -36.828125 L 41.234375 -36.828125 Z M 41.234375 -35.515625 "/></g></g><g style="fill:#ffffff;fill-opacity:1;"><g transform="translate(69.066604, 78.276559)"><path style="stroke:none" d="M 13.46875 -3.96875 C 14.4375 -1.757812 16.101562 -0.65625 18.46875 -0.65625 C 20.84375 -0.65625 22.535156 -1.769531 23.546875 -4 C 24.554688 -6.238281 25.0625 -9.9375 25.0625 -15.09375 C 25.0625 -20.25 24.554688 -23.953125 23.546875 -26.203125 C 22.535156 -28.460938 20.84375 -29.59375 18.46875 -29.59375 C 16.101562 -29.59375 14.4375 -28.460938 13.46875 -26.203125 C 12.507812 -23.953125 12.03125 -20.238281 12.03125 -15.0625 C 12.03125 -9.882812 12.507812 -6.1875 13.46875 -3.96875 Z M 18.34375 0.65625 C 14.175781 0.65625 10.40625 -0.703125 7.03125 -3.421875 C 3.65625 -6.140625 1.96875 -10 1.96875 -15 C 1.96875 -17.664062 2.460938 -20.050781 3.453125 -22.15625 C 4.441406 -24.257812 5.753906 -25.925781 7.390625 -27.15625 C 9.035156 -28.382812 10.800781 -29.316406 12.6875 -29.953125 C 14.570312 -30.585938 16.5 -30.90625 18.46875 -30.90625 C 20.445312 -30.90625 22.390625 -30.585938 24.296875 -29.953125 C 26.203125 -29.316406 27.976562 -28.382812 29.625 -27.15625 C 31.269531 -25.925781 32.597656 -24.257812 33.609375 -22.15625 C 34.617188 -20.050781 35.125 -17.679688 35.125 -15.046875 C 35.125 -12.421875 34.617188 -10.078125 33.609375 -8.015625 C 32.597656 -5.960938 31.257812 -4.320312 29.59375 -3.09375 C 26.257812 -0.59375 22.507812 0.65625 18.34375 0.65625 Z M 18.34375 0.65625 "/></g></g><g style="fill:#ffffff;fill-opacity:1;"><g transform="translate(106.147976, 78.276559)"><path style="stroke:none" d="M 57.875 -1.3125 L 61.15625 -1.3125 L 61.15625 0 L 44.71875 0 L 44.71875 -1.3125 L 48.015625 -1.3125 L 48.015625 -19.734375 C 48.015625 -22.847656 47.550781 -25.0625 46.625 -26.375 C 45.707031 -27.6875 44.328125 -28.34375 42.484375 -28.34375 C 41.429688 -28.34375 40.332031 -28.035156 39.1875 -27.421875 C 38.050781 -26.804688 37.113281 -25.953125 36.375 -24.859375 C 36.894531 -23.273438 37.15625 -21.082031 37.15625 -18.28125 L 37.15625 -1.3125 L 40.453125 -1.3125 L 40.453125 0 L 23.34375 0 L 23.34375 -1.3125 L 27.296875 -1.3125 L 27.296875 -19.734375 C 27.296875 -22.847656 26.832031 -25.0625 25.90625 -26.375 C 24.988281 -27.6875 23.609375 -28.34375 21.765625 -28.34375 C 19.265625 -28.34375 17.269531 -27.03125 15.78125 -24.40625 L 15.78125 -1.3125 L 19.078125 -1.3125 L 19.078125 0 L 2.625 0 L 2.625 -1.3125 L 5.921875 -1.3125 L 5.921875 -28.9375 L 2.625 -28.9375 L 2.625 -30.25 L 15.78125 -30.25 L 15.78125 -26.828125 C 16.613281 -27.972656 17.914062 -28.945312 19.6875 -29.75 C 21.46875 -30.5625 23.390625 -30.96875 25.453125 -30.96875 C 30.671875 -30.96875 34.066406 -29.5 35.640625 -26.5625 C 36.785156 -27.96875 38.300781 -29.050781 40.1875 -29.8125 C 42.070312 -30.582031 44.066406 -30.96875 46.171875 -30.96875 C 53.972656 -30.96875 57.875 -26.738281 57.875 -18.28125 Z M 57.875 -1.3125 "/></g></g><g style="fill:#ffffff;fill-opacity:1;"><g transform="translate(169.265216, 78.276559)"><path style="stroke:none" d="M 31.703125 -13.15625 L 11.84375 -13.15625 C 12.28125 -5.4375 15.28125 -1.578125 20.84375 -1.578125 C 22.332031 -1.578125 24.03125 -1.925781 25.9375 -2.625 C 27.851562 -3.332031 29.25 -4.320312 30.125 -5.59375 L 31.046875 -4.9375 C 30.078125 -3.3125 28.429688 -1.972656 26.109375 -0.921875 C 23.785156 0.128906 21.472656 0.65625 19.171875 0.65625 C 16.867188 0.65625 14.796875 0.425781 12.953125 -0.03125 C 11.109375 -0.488281 9.3125 -1.265625 7.5625 -2.359375 C 5.8125 -3.460938 4.441406 -5.109375 3.453125 -7.296875 C 2.460938 -9.492188 1.96875 -12.144531 1.96875 -15.25 C 1.96875 -20.5625 3.4375 -24.5 6.375 -27.0625 C 9.3125 -29.625 12.875 -30.90625 17.0625 -30.90625 C 21.25 -30.90625 24.734375 -29.5 27.515625 -26.6875 C 30.304688 -23.882812 31.703125 -19.375 31.703125 -13.15625 Z M 11.765625 -14.46875 L 22.484375 -14.46875 C 22.484375 -18.5 22.054688 -22.023438 21.203125 -25.046875 C 20.347656 -28.078125 18.976562 -29.59375 17.09375 -29.59375 C 15.207031 -29.59375 13.847656 -28.132812 13.015625 -25.21875 C 12.179688 -22.300781 11.765625 -18.957031 11.765625 -15.1875 Z M 11.765625 -14.46875 "/></g></g><g style="fill:#ffffff;fill-opacity:1;"><g transform="translate(203.124978, 78.276559)"><path style="stroke:none" d="M 14.734375 -28.9375 L 14.734375 -12.890625 C 14.734375 -9.117188 14.882812 -6.828125 15.1875 -6.015625 C 15.5 -5.203125 15.828125 -4.515625 16.171875 -3.953125 C 16.835938 -2.804688 17.988281 -2.234375 19.625 -2.234375 C 21.269531 -2.234375 22.421875 -2.453125 23.078125 -2.890625 L 23.078125 -1.578125 C 20.972656 -0.0859375 18.671875 0.65625 16.171875 0.65625 C 12.492188 0.65625 9.6875 -0.21875 7.75 -1.96875 C 5.820312 -3.726562 4.859375 -6.863281 4.859375 -11.375 L 4.859375 -28.9375 L 0 -28.9375 L 0 -30.25 L 4.859375 -30.25 C 6.960938 -30.601562 8.828125 -31.625 10.453125 -33.3125 C 12.078125 -35 13.195312 -37.332031 13.8125 -40.3125 L 14.734375 -40.3125 L 14.734375 -30.25 L 22.359375 -30.25 L 22.359375 -28.9375 Z M 14.734375 -28.9375 "/></g></g><g style="fill:#ffffff;fill-opacity:1;"><g transform="translate(226.859687, 78.276559)"><path style="stroke:none" d="M 19.078125 0 L 2.625 0 L 2.625 -1.3125 L 5.921875 -1.3125 L 5.921875 -28.9375 L 2.625 -28.9375 L 2.625 -30.25 L 15.78125 -30.25 L 15.78125 -22.421875 C 16.175781 -24.578125 16.890625 -26.332031 17.921875 -27.6875 C 18.953125 -29.039062 20.09375 -29.9375 21.34375 -30.375 C 22.59375 -30.820312 23.796875 -31.046875 24.953125 -31.046875 C 26.117188 -31.046875 27.238281 -30.835938 28.3125 -30.421875 C 29.382812 -30.003906 30.179688 -29.171875 30.703125 -27.921875 C 31.234375 -26.671875 31.257812 -25.421875 30.78125 -24.171875 C 30.300781 -22.921875 29.457031 -22.03125 28.25 -21.5 C 27.039062 -20.976562 25.929688 -20.914062 24.921875 -21.3125 C 23.910156 -21.707031 23.1875 -22.242188 22.75 -22.921875 C 22.3125 -23.597656 22.003906 -24.242188 21.828125 -24.859375 C 21.390625 -26.484375 20.800781 -27.296875 20.0625 -27.296875 C 19.226562 -27.296875 18.304688 -25.859375 17.296875 -22.984375 C 16.285156 -20.109375 15.78125 -17.070312 15.78125 -13.875 L 15.78125 -1.3125 L 19.078125 -1.3125 Z M 19.078125 0 "/></g></g><g style="fill:#ffffff;fill-opacity:1;"><g transform="translate(258.615542, 78.276559)"><path style="stroke:none" d="M 15.78125 -1.3125 L 19.078125 -1.3125 L 19.078125 0 L 2.625 0 L 2.625 -1.3125 L 5.921875 -1.3125 L 5.921875 -28.9375 L 3.28125 -28.9375 L 3.28125 -30.25 L 15.78125 -30.25 Z M 16.375 -38.953125 C 16.375 -37.359375 15.8125 -36.003906 14.6875 -34.890625 C 13.570312 -33.773438 12.210938 -33.21875 10.609375 -33.21875 C 9.015625 -33.21875 7.644531 -33.773438 6.5 -34.890625 C 5.363281 -36.003906 4.796875 -37.359375 4.796875 -38.953125 C 4.796875 -40.554688 5.363281 -41.925781 6.5 -43.0625 C 7.644531 -44.207031 9.015625 -44.78125 10.609375 -44.78125 C 12.210938 -44.78125 13.570312 -44.207031 14.6875 -43.0625 C 15.8125 -41.925781 16.375 -40.554688 16.375 -38.953125 Z M 16.375 -38.953125 "/></g></g><g style="fill:#ffffff;fill-opacity:1;"><g transform="translate(279.654622, 78.276559)"><path style="stroke:none" d="M 11.96875 0 L 0.859375 0 L 0.859375 -1.3125 L 4.796875 -1.3125 L 14.078125 -13.609375 L 2.625 -28.9375 L 0 -28.9375 L 0 -30.25 L 17.296875 -30.25 L 17.296875 -28.9375 L 14.015625 -28.9375 L 21.5 -18.875 L 29.53125 -28.9375 L 24.265625 -28.9375 L 24.265625 -30.25 L 35.3125 -30.25 L 35.3125 -28.9375 L 31.375 -28.9375 L 22.296875 -17.75 L 34.59375 -1.3125 L 37.21875 -1.3125 L 37.21875 0 L 20 0 L 20 -1.3125 L 23.28125 -1.3125 L 15 -12.359375 L 6.640625 -1.3125 L 11.96875 -1.3125 Z M 11.96875 0 "/></g></g><g style="fill:#ffbd59;fill-opacity:1;"><g transform="translate(59.834187, 96.246421)"><path style="stroke:none" d=""/></g></g><g style="fill:#ffbd59;fill-opacity:1;"><g transform="translate(63.915139, 96.246421)"><path style="stroke:none" d="M 1.046875 -8.59375 L 1.90625 -8.59375 L 1.90625 -4.984375 L 6.28125 -4.984375 L 6.28125 -8.59375 L 7.140625 -8.59375 L 7.140625 0 L 6.28125 0 L 6.28125 -4.15625 L 1.90625 -4.15625 L 1.90625 0 L 1.046875 0 Z M 1.046875 -8.59375 "/></g></g><g style="fill:#ffbd59;fill-opacity:1;"><g transform="translate(72.847704, 96.246421)"><path style="stroke:none" d="M 5.203125 0.21875 C 4.335938 0.21875 3.5625 0.015625 2.875 -0.390625 C 2.1875 -0.796875 1.644531 -1.34375 1.25 -2.03125 C 0.863281 -2.71875 0.671875 -3.460938 0.671875 -4.265625 C 0.671875 -5.097656 0.867188 -5.859375 1.265625 -6.546875 C 1.660156 -7.242188 2.195312 -7.796875 2.875 -8.203125 C 3.5625 -8.609375 4.316406 -8.8125 5.140625 -8.8125 C 5.992188 -8.8125 6.769531 -8.613281 7.46875 -8.21875 C 8.164062 -7.820312 8.71875 -7.273438 9.125 -6.578125 C 9.53125 -5.890625 9.734375 -5.128906 9.734375 -4.296875 C 9.734375 -3.460938 9.53125 -2.703125 9.125 -2.015625 C 8.726562 -1.328125 8.1875 -0.78125 7.5 -0.375 C 6.8125 0.0195312 6.046875 0.21875 5.203125 0.21875 Z M 5.1875 -0.625 C 5.84375 -0.625 6.453125 -0.78125 7.015625 -1.09375 C 7.578125 -1.40625 8.019531 -1.84375 8.34375 -2.40625 C 8.664062 -2.96875 8.828125 -3.601562 8.828125 -4.3125 C 8.828125 -5.007812 8.65625 -5.632812 8.3125 -6.1875 C 7.976562 -6.75 7.53125 -7.1875 6.96875 -7.5 C 6.414062 -7.8125 5.820312 -7.96875 5.1875 -7.96875 C 4.550781 -7.96875 3.957031 -7.8125 3.40625 -7.5 C 2.851562 -7.1875 2.40625 -6.742188 2.0625 -6.171875 C 1.726562 -5.609375 1.5625 -4.972656 1.5625 -4.265625 C 1.5625 -3.578125 1.726562 -2.953125 2.0625 -2.390625 C 2.394531 -1.835938 2.835938 -1.40625 3.390625 -1.09375 C 3.941406 -0.78125 4.539062 -0.625 5.1875 -0.625 Z M 5.1875 -0.625 "/></g></g><g style="fill:#ffbd59;fill-opacity:1;"><g transform="translate(84.007416, 96.246421)"><path style="stroke:none" d="M 3.921875 0.21875 C 3.335938 0.21875 2.832031 0.09375 2.40625 -0.15625 C 1.976562 -0.414062 1.648438 -0.785156 1.421875 -1.265625 C 1.191406 -1.753906 1.078125 -2.332031 1.078125 -3 L 1.078125 -8.59375 L 1.9375 -8.59375 L 1.9375 -2.84375 C 1.9375 -2.40625 2.007812 -2.019531 2.15625 -1.6875 C 2.300781 -1.363281 2.523438 -1.101562 2.828125 -0.90625 C 3.128906 -0.71875 3.492188 -0.625 3.921875 -0.625 C 4.359375 -0.625 4.722656 -0.71875 5.015625 -0.90625 C 5.316406 -1.101562 5.539062 -1.363281 5.6875 -1.6875 C 5.832031 -2.019531 5.90625 -2.390625 5.90625 -2.796875 L 5.90625 -8.59375 L 6.78125 -8.59375 L 6.78125 -3 C 6.78125 -2.332031 6.660156 -1.753906 6.421875 -1.265625 C 6.191406 -0.785156 5.863281 -0.414062 5.4375 -0.15625 C 5.007812 0.09375 4.503906 0.21875 3.921875 0.21875 Z M 3.921875 0.21875 "/></g></g><g style="fill:#ffbd59;fill-opacity:1;"><g transform="translate(92.604712, 96.246421)"><path style="stroke:none" d="M 2.890625 0.21875 C 2.316406 0.21875 1.820312 0.0664062 1.40625 -0.234375 C 1 -0.535156 0.628906 -0.992188 0.296875 -1.609375 L 1.03125 -2.046875 C 1.28125 -1.578125 1.554688 -1.222656 1.859375 -0.984375 C 2.171875 -0.742188 2.492188 -0.625 2.828125 -0.625 C 3.117188 -0.625 3.382812 -0.6875 3.625 -0.8125 C 3.875 -0.945312 4.066406 -1.125 4.203125 -1.34375 C 4.347656 -1.570312 4.421875 -1.816406 4.421875 -2.078125 C 4.421875 -2.347656 4.34375 -2.59375 4.1875 -2.8125 C 4.039062 -3.039062 3.828125 -3.273438 3.546875 -3.515625 C 3.273438 -3.765625 2.789062 -4.171875 2.09375 -4.734375 C 1.78125 -4.972656 1.535156 -5.1875 1.359375 -5.375 C 1.191406 -5.570312 1.0625 -5.78125 0.96875 -6 C 0.882812 -6.21875 0.84375 -6.484375 0.84375 -6.796875 C 0.84375 -7.179688 0.9375 -7.523438 1.125 -7.828125 C 1.3125 -8.140625 1.5625 -8.378906 1.875 -8.546875 C 2.195312 -8.722656 2.550781 -8.8125 2.9375 -8.8125 C 3.414062 -8.8125 3.828125 -8.6875 4.171875 -8.4375 C 4.515625 -8.195312 4.851562 -7.851562 5.1875 -7.40625 L 4.484375 -6.875 C 4.304688 -7.113281 4.144531 -7.300781 4 -7.4375 C 3.851562 -7.582031 3.691406 -7.695312 3.515625 -7.78125 C 3.335938 -7.875 3.132812 -7.921875 2.90625 -7.921875 C 2.664062 -7.921875 2.457031 -7.867188 2.28125 -7.765625 C 2.101562 -7.671875 1.96875 -7.539062 1.875 -7.375 C 1.789062 -7.207031 1.75 -7.023438 1.75 -6.828125 C 1.75 -6.554688 1.828125 -6.300781 1.984375 -6.0625 C 2.140625 -5.832031 2.375 -5.609375 2.6875 -5.390625 C 3.320312 -4.921875 3.8125 -4.535156 4.15625 -4.234375 C 4.507812 -3.929688 4.789062 -3.601562 5 -3.25 C 5.207031 -2.90625 5.3125 -2.519531 5.3125 -2.09375 C 5.3125 -1.695312 5.207031 -1.320312 5 -0.96875 C 4.789062 -0.613281 4.5 -0.328125 4.125 -0.109375 C 3.757812 0.109375 3.347656 0.21875 2.890625 0.21875 Z M 2.890625 0.21875 "/></g></g><g style="fill:#ffbd59;fill-opacity:1;"><g transform="translate(99.19039, 96.246421)"><path style="stroke:none" d="M 1.046875 -8.59375 L 5.953125 -8.59375 L 5.953125 -7.765625 L 1.90625 -7.765625 L 1.90625 -5.046875 L 5.953125 -5.046875 L 5.953125 -4.234375 L 1.90625 -4.234375 L 1.90625 -0.84375 L 5.953125 -0.84375 L 5.953125 0 L 1.046875 0 Z M 1.046875 -8.59375 "/></g></g><g style="fill:#ffbd59;fill-opacity:1;"><g transform="translate(106.350807, 96.246421)"><path style="stroke:none" d=""/></g></g><g style="fill:#ffbd59;fill-opacity:1;"><g transform="translate(110.42195, 96.246421)"><path style="stroke:none" d="M 3.359375 -8.59375 C 4.304688 -8.59375 5.050781 -8.425781 5.59375 -8.09375 C 6.144531 -7.757812 6.421875 -7.164062 6.421875 -6.3125 C 6.421875 -5.4375 6.132812 -4.832031 5.5625 -4.5 C 5 -4.164062 4.242188 -4 3.296875 -4 L 1.90625 -4 L 1.90625 0 L 1.046875 0 L 1.046875 -8.59375 Z M 3.328125 -4.828125 C 3.785156 -4.828125 4.175781 -4.867188 4.5 -4.953125 C 4.820312 -5.046875 5.070312 -5.195312 5.25 -5.40625 C 5.4375 -5.625 5.53125 -5.925781 5.53125 -6.3125 C 5.53125 -6.851562 5.34375 -7.226562 4.96875 -7.4375 C 4.601562 -7.644531 4.085938 -7.75 3.421875 -7.75 L 1.90625 -7.75 L 1.90625 -4.828125 Z M 3.328125 -4.828125 "/></g></g><g style="fill:#ffbd59;fill-opacity:1;"><g transform="translate(117.96554, 96.246421)"><path style="stroke:none" d="M 3.5 -8.59375 C 4.476562 -8.59375 5.207031 -8.390625 5.6875 -7.984375 C 6.175781 -7.578125 6.421875 -7.019531 6.421875 -6.3125 C 6.421875 -5.800781 6.296875 -5.375 6.046875 -5.03125 C 5.804688 -4.6875 5.460938 -4.425781 5.015625 -4.25 C 4.566406 -4.082031 4.046875 -4 3.453125 -4 L 6.546875 0 L 5.484375 0 L 2.4375 -4 L 1.90625 -4 L 1.90625 0 L 1.046875 0 L 1.046875 -8.59375 Z M 3.453125 -4.828125 C 4.109375 -4.828125 4.617188 -4.945312 4.984375 -5.1875 C 5.347656 -5.425781 5.53125 -5.800781 5.53125 -6.3125 C 5.53125 -6.75 5.375 -7.097656 5.0625 -7.359375 C 4.75 -7.617188 4.28125 -7.75 3.65625 -7.75 L 1.90625 -7.75 L 1.90625 -4.828125 Z M 3.453125 -4.828125 "/></g></g><g style="fill:#ffbd59;fill-opacity:1;"><g transform="translate(125.808472, 96.246421)"><path style="stroke:none" d="M 1.046875 -8.59375 L 1.90625 -8.59375 L 1.90625 0 L 1.046875 0 Z M 1.046875 -8.59375 "/></g></g><g style="fill:#ffbd59;fill-opacity:1;"><g transform="translate(129.496455, 96.246421)"><path style="stroke:none" d="M 5.296875 0.203125 C 4.367188 0.203125 3.550781 0.00390625 2.84375 -0.390625 C 2.144531 -0.796875 1.609375 -1.34375 1.234375 -2.03125 C 0.859375 -2.726562 0.671875 -3.5 0.671875 -4.34375 C 0.671875 -5.175781 0.867188 -5.929688 1.265625 -6.609375 C 1.660156 -7.296875 2.210938 -7.832031 2.921875 -8.21875 C 3.628906 -8.613281 4.421875 -8.8125 5.296875 -8.8125 C 6.078125 -8.8125 6.785156 -8.65625 7.421875 -8.34375 C 8.066406 -8.039062 8.597656 -7.59375 9.015625 -7 L 8.328125 -6.484375 C 7.960938 -6.972656 7.519531 -7.34375 7 -7.59375 C 6.488281 -7.84375 5.925781 -7.96875 5.3125 -7.96875 C 4.632812 -7.96875 4.007812 -7.8125 3.4375 -7.5 C 2.863281 -7.1875 2.40625 -6.75 2.0625 -6.1875 C 1.726562 -5.625 1.5625 -4.984375 1.5625 -4.265625 C 1.5625 -3.566406 1.726562 -2.9375 2.0625 -2.375 C 2.394531 -1.820312 2.847656 -1.382812 3.421875 -1.0625 C 4.003906 -0.75 4.648438 -0.59375 5.359375 -0.59375 C 5.960938 -0.59375 6.515625 -0.707031 7.015625 -0.9375 C 7.523438 -1.175781 7.976562 -1.535156 8.375 -2.015625 L 9.0625 -1.5 C 8.625 -0.9375 8.082031 -0.507812 7.4375 -0.21875 C 6.789062 0.0625 6.078125 0.203125 5.296875 0.203125 Z M 5.296875 0.203125 "/></g></g><g style="fill:#ffbd59;fill-opacity:1;"><g transform="translate(139.997609, 96.246421)"><path style="stroke:none" d="M 1.046875 -8.59375 L 5.953125 -8.59375 L 5.953125 -7.765625 L 1.90625 -7.765625 L 1.90625 -5.046875 L 5.953125 -5.046875 L 5.953125 -4.234375 L 1.90625 -4.234375 L 1.90625 -0.84375 L 5.953125 -0.84375 L 5.953125 0 L 1.046875 0 Z M 1.046875 -8.59375 "/></g></g><g style="fill:#ffbd59;fill-opacity:1;"><g transform="translate(147.158026, 96.246421)"><path style="stroke:none" d=""/></g></g><g style="fill:#ffbd59;fill-opacity:1;"><g transform="translate(151.22917, 96.246421)"><path style="stroke:none" d="M 3.359375 -8.59375 C 4.304688 -8.59375 5.050781 -8.425781 5.59375 -8.09375 C 6.144531 -7.757812 6.421875 -7.164062 6.421875 -6.3125 C 6.421875 -5.4375 6.132812 -4.832031 5.5625 -4.5 C 5 -4.164062 4.242188 -4 3.296875 -4 L 1.90625 -4 L 1.90625 0 L 1.046875 0 L 1.046875 -8.59375 Z M 3.328125 -4.828125 C 3.785156 -4.828125 4.175781 -4.867188 4.5 -4.953125 C 4.820312 -5.046875 5.070312 -5.195312 5.25 -5.40625 C 5.4375 -5.625 5.53125 -5.925781 5.53125 -6.3125 C 5.53125 -6.851562 5.34375 -7.226562 4.96875 -7.4375 C 4.601562 -7.644531 4.085938 -7.75 3.421875 -7.75 L 1.90625 -7.75 L 1.90625 -4.828125 Z M 3.328125 -4.828125 "/></g></g><g style="fill:#ffbd59;fill-opacity:1;"><g transform="translate(158.772759, 96.246421)"><path style="stroke:none" d="M 3.5 -8.59375 C 4.476562 -8.59375 5.207031 -8.390625 5.6875 -7.984375 C 6.175781 -7.578125 6.421875 -7.019531 6.421875 -6.3125 C 6.421875 -5.800781 6.296875 -5.375 6.046875 -5.03125 C 5.804688 -4.6875 5.460938 -4.425781 5.015625 -4.25 C 4.566406 -4.082031 4.046875 -4 3.453125 -4 L 6.546875 0 L 5.484375 0 L 2.4375 -4 L 1.90625 -4 L 1.90625 0 L 1.046875 0 L 1.046875 -8.59375 Z M 3.453125 -4.828125 C 4.109375 -4.828125 4.617188 -4.945312 4.984375 -5.1875 C 5.347656 -5.425781 5.53125 -5.800781 5.53125 -6.3125 C 5.53125 -6.75 5.375 -7.097656 5.0625 -7.359375 C 4.75 -7.617188 4.28125 -7.75 3.65625 -7.75 L 1.90625 -7.75 L 1.90625 -4.828125 Z M 3.453125 -4.828125 "/></g></g><g style="fill:#ffbd59;fill-opacity:1;"><g transform="translate(166.615691, 96.246421)"><path style="stroke:none" d="M 1.046875 -8.59375 L 5.953125 -8.59375 L 5.953125 -7.765625 L 1.90625 -7.765625 L 1.90625 -5.046875 L 5.953125 -5.046875 L 5.953125 -4.234375 L 1.90625 -4.234375 L 1.90625 -0.84375 L 5.953125 -0.84375 L 5.953125 0 L 1.046875 0 Z M 1.046875 -8.59375 "/></g></g><g style="fill:#ffbd59;fill-opacity:1;"><g transform="translate(173.776109, 96.246421)"><path style="stroke:none" d="M 3.15625 -8.59375 C 4.238281 -8.59375 5.160156 -8.425781 5.921875 -8.09375 C 6.691406 -7.757812 7.28125 -7.265625 7.6875 -6.609375 C 8.09375 -5.960938 8.296875 -5.160156 8.296875 -4.203125 C 8.296875 -2.828125 7.90625 -1.78125 7.125 -1.0625 C 6.34375 -0.351562 5.15625 0 3.5625 0 L 1.046875 0 L 1.046875 -8.59375 Z M 3.5625 -0.84375 C 4.8125 -0.84375 5.757812 -1.113281 6.40625 -1.65625 C 7.0625 -2.195312 7.390625 -3.039062 7.390625 -4.1875 C 7.390625 -5.414062 7.019531 -6.316406 6.28125 -6.890625 C 5.550781 -7.460938 4.507812 -7.75 3.15625 -7.75 L 1.90625 -7.75 L 1.90625 -0.84375 Z M 3.5625 -0.84375 "/></g></g><g style="fill:#ffbd59;fill-opacity:1;"><g transform="translate(183.498952, 96.246421)"><path style="stroke:none" d="M 1.046875 -8.59375 L 1.90625 -8.59375 L 1.90625 0 L 1.046875 0 Z M 1.046875 -8.59375 "/></g></g><g style="fill:#ffbd59;fill-opacity:1;"><g transform="translate(187.186935, 96.246421)"><path style="stroke:none" d="M 5.296875 0.203125 C 4.367188 0.203125 3.550781 0.00390625 2.84375 -0.390625 C 2.144531 -0.796875 1.609375 -1.34375 1.234375 -2.03125 C 0.859375 -2.726562 0.671875 -3.5 0.671875 -4.34375 C 0.671875 -5.175781 0.867188 -5.929688 1.265625 -6.609375 C 1.660156 -7.296875 2.210938 -7.832031 2.921875 -8.21875 C 3.628906 -8.613281 4.421875 -8.8125 5.296875 -8.8125 C 6.078125 -8.8125 6.785156 -8.65625 7.421875 -8.34375 C 8.066406 -8.039062 8.597656 -7.59375 9.015625 -7 L 8.328125 -6.484375 C 7.960938 -6.972656 7.519531 -7.34375 7 -7.59375 C 6.488281 -7.84375 5.925781 -7.96875 5.3125 -7.96875 C 4.632812 -7.96875 4.007812 -7.8125 3.4375 -7.5 C 2.863281 -7.1875 2.40625 -6.75 2.0625 -6.1875 C 1.726562 -5.625 1.5625 -4.984375 1.5625 -4.265625 C 1.5625 -3.566406 1.726562 -2.9375 2.0625 -2.375 C 2.394531 -1.820312 2.847656 -1.382812 3.421875 -1.0625 C 4.003906 -0.75 4.648438 -0.59375 5.359375 -0.59375 C 5.960938 -0.59375 6.515625 -0.707031 7.015625 -0.9375 C 7.523438 -1.175781 7.976562 -1.535156 8.375 -2.015625 L 9.0625 -1.5 C 8.625 -0.9375 8.082031 -0.507812 7.4375 -0.21875 C 6.789062 0.0625 6.078125 0.203125 5.296875 0.203125 Z M 5.296875 0.203125 "/></g></g><g style="fill:#ffbd59;fill-opacity:1;"><g transform="translate(197.688089, 96.246421)"><path style="stroke:none" d="M 2.125 -7.75 L 0.1875 -7.75 L 0.1875 -8.59375 L 4.90625 -8.59375 L 4.90625 -7.75 L 3 -7.75 L 3 0 L 2.125 0 Z M 2.125 -7.75 "/></g></g><g style="fill:#ffbd59;fill-opacity:1;"><g transform="translate(203.543347, 96.246421)"><path style="stroke:none" d="M 5.203125 0.21875 C 4.335938 0.21875 3.5625 0.015625 2.875 -0.390625 C 2.1875 -0.796875 1.644531 -1.34375 1.25 -2.03125 C 0.863281 -2.71875 0.671875 -3.460938 0.671875 -4.265625 C 0.671875 -5.097656 0.867188 -5.859375 1.265625 -6.546875 C 1.660156 -7.242188 2.195312 -7.796875 2.875 -8.203125 C 3.5625 -8.609375 4.316406 -8.8125 5.140625 -8.8125 C 5.992188 -8.8125 6.769531 -8.613281 7.46875 -8.21875 C 8.164062 -7.820312 8.71875 -7.273438 9.125 -6.578125 C 9.53125 -5.890625 9.734375 -5.128906 9.734375 -4.296875 C 9.734375 -3.460938 9.53125 -2.703125 9.125 -2.015625 C 8.726562 -1.328125 8.1875 -0.78125 7.5 -0.375 C 6.8125 0.0195312 6.046875 0.21875 5.203125 0.21875 Z M 5.1875 -0.625 C 5.84375 -0.625 6.453125 -0.78125 7.015625 -1.09375 C 7.578125 -1.40625 8.019531 -1.84375 8.34375 -2.40625 C 8.664062 -2.96875 8.828125 -3.601562 8.828125 -4.3125 C 8.828125 -5.007812 8.65625 -5.632812 8.3125 -6.1875 C 7.976562 -6.75 7.53125 -7.1875 6.96875 -7.5 C 6.414062 -7.8125 5.820312 -7.96875 5.1875 -7.96875 C 4.550781 -7.96875 3.957031 -7.8125 3.40625 -7.5 C 2.851562 -7.1875 2.40625 -6.742188 2.0625 -6.171875 C 1.726562 -5.609375 1.5625 -4.972656 1.5625 -4.265625 C 1.5625 -3.578125 1.726562 -2.953125 2.0625 -2.390625 C 2.394531 -1.835938 2.835938 -1.40625 3.390625 -1.09375 C 3.941406 -0.78125 4.539062 -0.625 5.1875 -0.625 Z M 5.1875 -0.625 "/></g></g><g style="fill:#ffbd59;fill-opacity:1;"><g transform="translate(214.703059, 96.246421)"><path style="stroke:none" d="M 3.5 -8.59375 C 4.476562 -8.59375 5.207031 -8.390625 5.6875 -7.984375 C 6.175781 -7.578125 6.421875 -7.019531 6.421875 -6.3125 C 6.421875 -5.800781 6.296875 -5.375 6.046875 -5.03125 C 5.804688 -4.6875 5.460938 -4.425781 5.015625 -4.25 C 4.566406 -4.082031 4.046875 -4 3.453125 -4 L 6.546875 0 L 5.484375 0 L 2.4375 -4 L 1.90625 -4 L 1.90625 0 L 1.046875 0 L 1.046875 -8.59375 Z M 3.453125 -4.828125 C 4.109375 -4.828125 4.617188 -4.945312 4.984375 -5.1875 C 5.347656 -5.425781 5.53125 -5.800781 5.53125 -6.3125 C 5.53125 -6.75 5.375 -7.097656 5.0625 -7.359375 C 4.75 -7.617188 4.28125 -7.75 3.65625 -7.75 L 1.90625 -7.75 L 1.90625 -4.828125 Z M 3.453125 -4.828125 "/></g></g><g style="fill:#ffbd59;fill-opacity:1;"><g transform="translate(222.545991, 96.246421)"><path style="stroke:none" d=""/></g></g><g style="fill:#ffbd59;fill-opacity:1;"><g transform="translate(226.617135, 96.246421)"><path style="stroke:none" d="M 7.359375 0 L 6.046875 -2.828125 L 2.28125 -2.828125 L 0.953125 0 L 0.0625 0 L 4.0625 -8.59375 L 4.265625 -8.59375 L 8.265625 0 Z M 2.65625 -3.640625 L 5.65625 -3.640625 L 4.171875 -6.859375 Z M 2.65625 -3.640625 "/></g></g><g style="fill:#ffbd59;fill-opacity:1;"><g transform="translate(235.693388, 96.246421)"><path style="stroke:none" d="M 1.046875 -8.59375 L 1.90625 -8.59375 L 1.90625 0 L 1.046875 0 Z M 1.046875 -8.59375 "/></g></g><path style="fill:none;stroke-width:1;stroke-linecap:butt;stroke-linejoin:miter;stroke:#ffbd59;stroke-opacity:1;stroke-miterlimit:4;" d="M -0.00150524 0.499745 L 22.521417 0.499745 " transform="matrix(0.74837,0,0,0.74837,40.532376,91.004913)"/><path style="fill:none;stroke-width:1;stroke-linecap:butt;stroke-linejoin:miter;stroke:#ffbd59;stroke-opacity:1;stroke-miterlimit:4;" d="M 0.00104739 0.498649 L 80.798038 0.499745 " transform="matrix(0.748355,0.00463111,-0.00463111,0.748355,241.845275,90.630735)"/></g></svg>